<!--?xml version="1.0" standalone="no"?-->
              <svg id="sw-js-blob-svg" viewBox="0 0 100 100" xmlns="http://www.w3.org/2000/svg" version="1.1">
                    <defs> 
                        <linearGradient id="sw-gradient" x1="0" x2="1" y1="1" y2="0">
                            <stop id="stop1" stop-color="rgba(248, 117, 55, 1)" offset="0%"></stop>
                            <stop id="stop2" stop-color="rgba(251, 168, 31, 1)" offset="100%"></stop>
                        </linearGradient>
                    </defs>
                <path fill="url(#sw-gradient)" d="M18.4,-20.5C25.9,-15.7,35.5,-11.8,39.8,-4.5C44.1,2.9,43.3,13.7,37.6,20C31.9,26.2,21.4,27.9,12.5,28.8C3.6,29.7,-3.7,29.8,-11.1,28.1C-18.5,26.4,-26,22.9,-30.8,16.8C-35.6,10.6,-37.6,1.8,-37.2,-7.6C-36.8,-17,-33.9,-27,-27.3,-32C-20.7,-37,-10.4,-37,-2.4,-34.1C5.5,-31.2,11,-25.4,18.4,-20.5Z" width="100%" height="100%" transform="translate(50 50)" stroke-width="0" style="transition: all 0.3s ease 0s;"></path>
              </svg>