<?xml version="1.0" encoding="UTF-8" standalone="no"?>
<!DOCTYPE svg PUBLIC "-//W3C//DTD SVG 1.1//EN" "http://www.w3.org/Graphics/SVG/1.1/DTD/svg11.dtd">
<svg xmlns="http://www.w3.org/2000/svg" version="1.1" viewBox="0.00 0.00 316.00 89.00">
<g stroke-width="2.00" fill="none" stroke-linecap="butt">
<path stroke="#8b8988" stroke-opacity="0.996" vector-effect="non-scaling-stroke" d="
  M 41.91 84.59
  Q 44.55 85.43 47.46 84.83"
/>
<path stroke="#8b8988" stroke-opacity="0.996" vector-effect="non-scaling-stroke" d="
  M 47.72 83.73
  Q 45.14 84.44 43.28 84.03"
/>
</g>
<path fill="#fffffe" d="
  M 42.95 0.00
  L 46.46 0.00
  Q 61.83 1.10 73.20 10.31
  C 77.14 13.50 79.48 17.47 77.38 22.29
  C 75.60 26.36 71.29 27.75 67.17 26.95
  Q 65.40 26.61 63.23 24.71
  C 56.52 18.85 48.04 16.08 39.17 18.17
  C 21.16 22.41 12.29 43.36 22.08 59.20
  C 31.25 74.05 49.28 76.10 62.59 65.53
  Q 65.96 62.84 67.70 62.39
  C 73.90 60.78 79.98 67.95 77.68 73.84
  C 74.49 81.97 59.82 87.74 51.86 89.00
  L 37.01 89.00
  Q 13.11 83.44 3.58 61.13
  Q 2.75 59.18 4.87 59.21
  L 5.37 59.22
  Q 7.49 59.25 8.39 61.17
  C 14.38 74.04 27.04 84.75 41.91 84.59
  Q 44.55 85.43 47.46 84.83
  C 55.73 84.59 69.64 80.23 73.81 71.99
  Q 74.05 71.51 73.95 70.97
  Q 73.26 67.49 69.89 66.43
  Q 69.37 66.27 68.89 66.55
  Q 66.02 68.24 61.26 71.69
  C 53.69 77.17 41.33 77.45 32.83 73.88
  C 15.89 66.76 9.18 47.14 16.93 30.87
  C 21.38 21.54 30.57 15.28 40.75 13.32
  Q 45.91 12.33 50.89 13.62
  Q 60.25 16.06 67.46 22.83
  A 1.39 1.35 64.8 0 0 68.44 23.20
  Q 73.12 23.05 74.17 18.50
  A 1.07 1.03 33.6 0 0 73.98 17.65
  Q 71.37 14.23 69.91 13.12
  C 53.49 0.61 33.42 1.18 18.36 14.81
  Q 3.13 28.58 5.08 50.72
  Q 5.19 51.96 3.94 51.99
  L 2.50 52.02
  A 1.44 1.44 0.0 0 1 1.04 50.80
  C -2.98 23.86 16.47 2.72 42.95 0.00
  Z"
/>
<path fill="#fffffe" d="
  M 14.26 31.90
  Q 13.58 33.37 12.56 35.83
  Q 11.87 37.49 10.15 36.97
  L 9.67 36.83
  Q 7.90 36.31 8.44 34.55
  C 12.72 20.68 23.51 10.84 37.72 7.92
  Q 55.30 4.32 70.70 16.85
  A 2.05 2.05 0.0 0 1 70.44 20.21
  L 69.49 20.76
  Q 68.96 21.07 68.50 20.66
  C 50.37 4.45 24.44 9.73 14.26 31.90
  Z"
/>
<path fill="#fffffe" d="
  M 150.62 49.19
  L 147.27 57.02
  A 0.26 0.26 0.0 0 1 146.85 57.10
  L 146.45 56.70
  A 0.26 0.26 0.0 0 1 146.39 56.42
  L 155.45 33.99
  A 0.26 0.26 0.0 0 1 155.93 33.99
  L 165.40 56.50
  A 0.26 0.26 0.0 0 1 165.18 56.86
  L 161.61 57.13
  A 0.26 0.26 0.0 0 1 161.34 56.95
  L 158.58 49.13
  A 0.26 0.26 0.0 0 0 158.33 48.95
  L 150.86 49.03
  A 0.26 0.26 0.0 0 0 150.62 49.19
  Z
  M 154.80 47.92
  Q 155.84 48.21 156.73 47.69
  A 1.09 1.09 0.0 0 0 157.17 46.28
  L 154.88 41.45
  Q 154.45 40.56 154.08 41.48
  L 151.92 46.87
  A 0.70 0.70 0.0 0 0 152.31 47.78
  Q 153.17 48.12 154.04 47.91
  Q 154.42 47.82 154.80 47.92
  Z"
/>
<path fill="#fffffe" d="
  M 45.77 49.18
  C 43.73 51.20 43.79 54.43 42.11 56.53
  A 0.59 0.59 0.0 0 1 41.10 55.94
  L 49.42 35.16
  A 0.75 0.75 0.0 0 1 50.81 35.14
  L 59.67 55.88
  Q 60.24 57.21 58.79 57.07
  L 57.02 56.91
  Q 55.78 56.79 55.42 55.59
  Q 54.87 53.78 53.88 51.58
  C 52.07 47.58 50.22 49.11 46.62 48.86
  Q 46.12 48.83 45.77 49.18
  Z
  M 46.61 46.73
  A 0.69 0.69 0.0 0 0 47.36 47.64
  L 51.00 47.10
  A 0.69 0.69 0.0 0 0 51.52 46.12
  L 49.56 41.89
  A 0.69 0.69 0.0 0 0 48.28 41.95
  L 46.61 46.73
  Z"
/>
<path fill="#fffffe" d="
  M 74.56 47.07
  Q 78.97 50.86 80.45 56.49
  Q 80.58 57.01 80.05 57.00
  L 78.84 56.98
  A 1.16 1.16 0.0 0 1 77.79 56.28
  C 75.88 51.90 73.58 47.42 69.40 47.03
  Q 67.99 46.90 68.00 48.32
  L 68.02 55.98
  A 1.03 1.03 0.0 0 1 67.02 57.01
  L 66.55 57.03
  Q 65.02 57.08 65.01 55.55
  L 64.89 36.01
  A 0.88 0.88 0.0 0 1 65.64 35.13
  C 70.93 34.34 80.88 34.24 78.86 42.98
  A 1.36 1.34 80.2 0 1 78.27 43.83
  L 74.62 46.17
  Q 73.99 46.58 74.56 47.07
  Z
  M 68.79 36.89
  L 68.79 44.65
  A 1.03 1.03 0.0 0 0 69.82 45.68
  L 70.03 45.68
  A 4.98 4.82 -0.0 0 0 75.01 40.86
  L 75.01 40.68
  A 4.98 4.82 0.0 0 0 70.03 35.86
  L 69.82 35.86
  A 1.03 1.03 0.0 0 0 68.79 36.89
  Z"
/>
<path fill="#fffffe" d="
  M 104.30 40.34
  L 97.38 56.29
  A 1.03 1.03 0.0 0 1 95.49 56.28
  L 88.67 40.10
  A 0.36 0.36 0.0 0 0 87.98 40.24
  L 88.02 56.51
  Q 88.03 57.07 87.51 56.84
  Q 86.38 56.32 86.37 55.42
  Q 86.28 45.84 86.25 37.07
  A 2.33 2.33 0.0 0 1 90.72 36.15
  L 97.29 51.48
  Q 97.61 52.21 97.93 51.49
  L 105.07 35.71
  A 2.00 2.00 0.0 0 1 108.90 36.54
  L 108.88 55.95
  Q 108.88 57.04 107.79 57.01
  L 106.08 56.97
  Q 104.97 56.94 104.98 55.83
  L 105.01 40.49
  A 0.37 0.37 0.0 0 0 104.30 40.34
  Z"
/>
<path fill="#fffffe" d="
  M 139.90 49.80
  L 140.08 35.25
  A 0.55 0.43 52.5 0 1 141.04 35.50
  L 140.93 56.67
  Q 140.92 57.86 140.20 56.92
  L 126.33 38.83
  Q 125.65 37.94 125.65 39.06
  L 125.67 54.76
  Q 125.67 54.93 125.53 55.05
  L 124.36 56.08
  A 0.22 0.22 0.0 0 1 124.00 55.91
  L 124.04 35.92
  A 1.03 1.02 87.5 0 1 124.96 34.91
  C 127.41 34.67 128.47 34.99 129.85 37.16
  Q 134.15 43.95 139.46 49.97
  Q 139.89 50.45 139.90 49.80
  Z"
/>
<path fill="#fffffe" d="
  M 188.84 36.06
  L 177.48 35.97
  A 0.20 0.20 0.0 0 1 177.29 35.73
  L 177.37 35.32
  A 0.20 0.20 0.0 0 1 177.56 35.16
  L 194.21 34.88
  A 0.20 0.20 0.0 0 1 194.38 35.19
  L 180.39 55.61
  A 0.20 0.20 0.0 0 0 180.55 55.92
  L 192.45 56.07
  A 0.20 0.20 0.0 0 1 192.63 56.17
  L 192.93 56.72
  A 0.20 0.20 0.0 0 1 192.76 57.02
  L 175.35 57.06
  A 0.20 0.20 0.0 0 1 175.18 56.75
  L 189.00 36.37
  A 0.20 0.20 0.0 0 0 188.84 36.06
  Z"
/>
<path fill="#fffffe" d="
  M 201.98 49.21
  L 198.41 57.28
  A 0.27 0.27 0.0 0 1 197.98 57.38
  L 197.47 56.95
  A 0.27 0.27 0.0 0 1 197.39 56.64
  L 206.42 33.88
  A 0.27 0.27 0.0 0 1 206.92 33.88
  L 216.28 56.54
  A 0.27 0.27 0.0 0 1 216.05 56.92
  L 212.78 57.06
  A 0.27 0.27 0.0 0 1 212.52 56.89
  L 209.42 49.00
  A 0.27 0.27 0.0 0 0 209.16 48.83
  L 202.22 49.04
  A 0.27 0.27 0.0 0 0 201.98 49.21
  Z
  M 202.82 47.03
  A 0.54 0.54 0.0 0 0 203.34 47.77
  L 207.92 47.60
  A 0.54 0.54 0.0 0 0 208.39 46.83
  L 205.90 41.58
  A 0.54 0.54 0.0 0 0 204.91 41.62
  L 202.82 47.03
  Z"
/>
<path fill="#fffffe" d="
  M 233.33 51.23
  Q 237.78 41.24 238.88 38.38
  C 239.45 36.89 240.20 34.80 242.04 34.76
  C 243.73 34.73 244.00 35.88 243.96 37.34
  Q 243.71 46.76 244.03 55.35
  Q 244.09 57.04 242.40 57.00
  L 241.95 56.99
  Q 239.95 56.95 239.97 54.95
  L 240.10 40.02
  A 0.22 0.22 0.0 0 0 239.68 39.93
  L 232.55 56.19
  A 1.02 1.02 0.0 0 1 230.68 56.19
  L 223.68 39.90
  Q 223.03 38.41 223.04 40.04
  L 223.10 56.83
  Q 223.10 57.27 222.66 57.20
  L 222.25 57.13
  Q 222.05 57.09 222.05 56.88
  L 221.97 35.85
  A 0.82 0.82 0.0 0 1 222.50 35.08
  C 224.54 34.32 225.68 35.07 226.39 37.05
  Q 229.00 44.42 232.74 51.25
  Q 233.06 51.83 233.33 51.23
  Z"
/>
<path fill="#fffffe" d="
  M 257.8921 56.8319
  A 11.31 10.90 102.5 0 1 249.6984 43.4308
  A 11.31 10.90 102.5 0 1 262.7879 34.7481
  A 11.31 10.90 102.5 0 1 270.9816 48.1492
  A 11.31 10.90 102.5 0 1 257.8921 56.8319
  Z
  M 260.5225 55.8899
  A 10.03 6.72 89.7 0 0 267.1899 45.8248
  A 10.03 6.72 89.7 0 0 260.4175 35.8301
  A 10.03 6.72 89.7 0 0 253.7501 45.8952
  A 10.03 6.72 89.7 0 0 260.5225 55.8899
  Z"
/>
<path fill="#fffffe" d="
  M 286.48 46.98
  Q 290.12 50.62 292.03 55.41
  Q 292.62 56.91 291.02 57.02
  L 290.50 57.05
  A 1.24 1.24 0.0 0 1 289.22 56.14
  Q 287.49 49.68 281.58 46.78
  A 1.11 1.11 0.0 0 0 279.98 47.77
  L 279.99 55.65
  Q 279.99 57.03 278.60 57.01
  L 277.77 56.99
  Q 276.08 56.96 276.08 55.27
  L 276.06 36.42
  A 1.58 1.58 0.0 0 1 277.60 34.84
  C 280.69 34.77 285.38 34.43 287.96 35.88
  C 292.91 38.64 290.80 44.02 286.60 46.17
  Q 285.99 46.48 286.48 46.98
  Z
  M 279.92 37.28
  L 280.00 44.40
  A 1.29 1.29 0.0 0 0 281.30 45.68
  L 282.00 45.67
  A 4.25 3.76 -0.6 0 0 286.21 41.87
  L 286.19 39.69
  A 4.25 3.76 -0.6 0 0 281.90 35.97
  L 281.20 35.98
  A 1.29 1.29 0.0 0 0 279.92 37.28
  Z"
/>
<path fill="#fffffe" d="
  M 316.00 55.38
  L 316.00 56.52
  Q 314.40 57.40 312.98 56.88
  Q 312.51 56.71 312.32 56.24
  L 309.53 49.21
  A 0.79 0.79 0.0 0 0 308.63 48.73
  Q 306.26 49.25 303.81 48.85
  A 2.04 2.03 16.3 0 0 301.62 50.04
  L 298.56 56.98
  A 0.65 0.64 -22.1 0 1 297.37 56.48
  L 306.06 35.20
  A 0.79 0.78 44.9 0 1 307.51 35.20
  L 316.00 55.38
  Z
  M 302.63 47.11
  A 0.60 0.60 0.0 0 0 303.19 47.95
  L 307.95 47.90
  A 0.60 0.60 0.0 0 0 308.48 47.05
  L 306.05 41.75
  A 0.60 0.60 0.0 0 0 304.95 41.76
  L 302.63 47.11
  Z"
/>
<rect fill="#fffffe" x="-1.77" y="-11.00" transform="translate(116.81,45.95) rotate(0.1)" width="3.54" height="22.00" rx="1.15"/>
<path fill="#fffffe" d="
  M 47.29 77.77
  C 55.41 77.94 62.22 74.69 68.25 69.29
  A 1.44 1.44 0.0 0 1 69.17 68.91
  Q 70.67 68.85 71.28 69.92
  C 72.27 71.64 70.20 73.57 68.91 74.48
  C 55.53 83.88 38.51 85.35 24.62 76.59
  Q 9.89 67.30 7.12 47.73
  Q 6.69 44.65 8.28 42.99
  A 1.22 1.22 0.0 0 1 9.37 42.63
  C 11.78 43.06 11.82 47.38 12.04 49.10
  C 13.59 61.31 20.43 70.46 31.68 75.58
  C 37.07 78.03 41.51 77.65 47.29 77.77
  Z"
/>
<path fill="#fffffe" d="
  M 47.72 83.73
  Q 45.14 84.44 43.28 84.03
  L 51.67 83.04
  Q 51.80 83.03 51.82 83.16
  L 51.82 83.17
  Q 51.83 83.31 51.70 83.32
  L 47.72 83.73
  Z"
/>
<path fill="#171211" fill-opacity="0.992" d="
  M 47.72 83.73
  L 47.46 84.83
  Q 44.55 85.43 41.91 84.59
  Q 42.73 83.62 43.28 84.03
  Q 45.14 84.44 47.72 83.73
  Z"
/>
</svg>
